<svg xmlns="http://www.w3.org/2000/svg" viewBox="0 0 300 220"><rect width="300" height="220" fill="#fff"/><rect x="16" y="16" width="140" height="12" rx="3" fill="#1A1A1A"/><rect x="16" y="34" width="90" height="7" rx="3" fill="#9A9382"/><rect x="0" y="56" width="96" height="164" fill="#1F2A44"/><rect x="12" y="78" width="72" height="4" rx="2" fill="#ffffffcc"/><rect x="12" y="87" width="72" height="4" rx="2" fill="#ffffffcc"/><rect x="12" y="96" width="72" height="4" rx="2" fill="#ffffffcc"/><rect x="12" y="105" width="72" height="4" rx="2" fill="#ffffffcc"/><rect x="12" y="114" width="72" height="4" rx="2" fill="#ffffffcc"/><rect x="12" y="123" width="72" height="4" rx="2" fill="#ffffffcc"/><rect x="12" y="132" width="72" height="4" rx="2" fill="#ffffffcc"/><rect x="112" y="78" width="172" height="4" rx="2" fill="#E7E2D5"/><rect x="112" y="87" width="172" height="4" rx="2" fill="#E7E2D5"/><rect x="112" y="96" width="172" height="4" rx="2" fill="#E7E2D5"/><rect x="112" y="105" width="172" height="4" rx="2" fill="#E7E2D5"/><rect x="112" y="114" width="172" height="4" rx="2" fill="#E7E2D5"/><rect x="112" y="123" width="172" height="4" rx="2" fill="#E7E2D5"/><rect x="112" y="132" width="172" height="4" rx="2" fill="#E7E2D5"/><rect x="112" y="141" width="172" height="4" rx="2" fill="#E7E2D5"/><rect x="112" y="150" width="172" height="4" rx="2" fill="#E7E2D5"/></svg>